<svg width="351" height="174" viewBox="0 0 351 174" fill="none" xmlns="http://www.w3.org/2000/svg">
<path fill-rule="evenodd" clip-rule="evenodd" d="M64.524 0.244261C55.668 1.81126 47.655 5.41726 41.154 10.7603C38.659 12.8113 37.864 12.6083 39.507 10.3403C40.979 8.30826 39.919 8.10226 37.605 9.97026C34.691 12.3233 31.067 15.5773 29.211 17.5073C28.11 18.6523 27.108 19.4873 26.985 19.3623C26.761 19.1353 27.687 16.9523 28.343 16.1613C28.712 15.7173 28.559 14.9203 28.104 14.9203C26.543 14.9203 18.28 23.8993 15.179 28.9653C14.735 29.6903 13.955 30.9563 13.445 31.7793C12.935 32.6023 11.726 34.8523 10.757 36.7803C8.858 40.5603 8.395 40.8263 8.694 37.9673C8.945 35.5613 8.323 35.9293 6.396 39.3253C2.263 46.6123 0.892998 53.5173 2.102 60.9643C2.447 63.0903 2.677 63.6763 3.732 65.1023C3.965 65.4183 3.631 66.7743 1.828 72.8403C1.149 75.1253 0.550998 78.1353 0.343998 80.3173C0.229998 81.5143 -0.0130027 83.3493 -0.196003 84.3963C-0.595003 86.6753 -0.417005 100.605 0.0439952 103.159C0.205995 104.056 0.457997 105.892 0.603997 107.238C0.911997 110.085 1.508 113.783 1.939 115.532C2.105 116.205 2.37 117.428 2.529 118.251C3.046 120.939 3.59199 123.247 4.16999 125.185C4.48199 126.232 4.847 127.69 4.982 128.425C5.116 129.16 5.353 129.888 5.507 130.043C5.662 130.198 5.794 130.575 5.801 130.882C5.807 131.188 5.994 131.929 6.215 132.527C6.437 133.125 6.726 134.104 6.858 134.702C9.048 144.621 18.612 159.367 27.272 166.177C29.601 168.009 33.721 171.015 34.341 171.334C34.714 171.526 35.514 172.012 36.118 172.412C36.722 172.812 37.539 173.221 37.934 173.32C38.329 173.419 38.718 173.673 38.799 173.884C38.961 174.306 40.051 174.419 40.051 174.014C40.051 173.874 39.785 173.676 39.46 173.572C39.135 173.469 38.737 173.274 38.576 173.138C38.415 173.002 37.61 172.409 36.788 171.82C35.965 171.231 35.17 170.653 35.02 170.536C34.871 170.42 34.2 169.957 33.53 169.508C31.63 168.236 30.035 166.917 26.498 163.691C21.995 159.584 16.062 152.152 13.558 147.483C13.157 146.735 12.716 145.939 12.578 145.715C12.228 145.148 10.869 142.121 10.014 140.005C9.621 139.033 9.186 137.993 9.047 137.693C8.729 137.009 8.051 135.074 7.569 133.479C7.365 132.806 6.994 131.582 6.743 130.759C6.492 129.937 6.127 128.652 5.932 127.904C5.737 127.156 5.441 126.2 5.275 125.779C5.109 125.358 4.973 124.657 4.973 124.221C4.973 123.785 4.805 122.967 4.599 122.403C4.141 121.146 3.249 116.153 2.544 110.909C2.374 109.638 2.059 107.435 1.846 106.014C0.504997 97.0923 0.516996 82.4883 1.869 77.7343C4.31 69.1513 6.046 66.5853 10.139 65.5063C15.532 64.0863 19.611 61.1073 22.821 56.2453C24.586 53.5723 26.259 51.3143 26.821 50.8483C27.823 50.0173 26.922 49.5593 25.474 50.1643C24.885 50.4103 24.38 50.4793 24.235 50.3343C23.302 49.4023 32.162 43.9983 39.915 40.7723C41.411 40.1493 43.093 39.4443 43.654 39.2033C45.274 38.5093 44.887 37.7613 42.906 37.7613C40.595 37.7613 40.797 36.7003 43.245 35.9823C46.282 35.0903 49.073 34.4983 50.243 34.4983C52.372 34.4983 53.08 33.7233 51.404 33.2293L50.52 32.9683L51.472 32.4643C57.498 29.2743 88.292 27.9903 101.37 30.3833C103.91 30.8483 103.853 29.8523 101.235 28.0553C99.192 26.6523 98.964 26.3413 99.977 26.3413C101.695 26.3413 108.61 29.8923 116.598 34.8763C120.327 37.2033 121.702 37.8343 121.976 37.3453C122.368 36.6453 122.885 36.8973 125.754 39.1883C127.299 40.4213 129.612 42.2263 130.895 43.1993C132.178 44.1713 134.665 46.0693 136.422 47.4153C138.18 48.7613 139.888 50.0463 140.219 50.2703C140.55 50.4943 142.712 52.0913 145.024 53.8183C153.366 60.0503 153.454 60.0603 153.026 54.6923C152.077 42.7793 143.009 29.9213 129.342 21.1093C127.941 20.2063 126.795 19.3613 126.795 19.2333C126.795 18.8723 128.036 18.9553 129.029 19.3833C131.455 20.4293 132.843 20.9263 132.973 20.7973C133.283 20.4873 132.745 19.8033 131.365 18.7523C130.571 18.1473 129.301 17.1643 128.543 16.5673C120.406 10.1633 114.696 7.65726 107.951 7.53126L105.449 7.48426L107.807 7.32726C111.404 7.08726 111.326 6.62026 107.375 4.74726C101.81 2.10926 96.61 1.10726 85.326 0.49626C82.485 0.34326 79.058 0.108261 77.712 -0.0257393C73.581 -0.436739 67.686 -0.315739 64.524 0.244261ZM28.407 32.5273C27.506 33.3873 25.995 34.7623 25.048 35.5843C22.683 37.6363 15.044 45.8053 15.037 46.2893C15.036 46.4183 14.514 47.1523 13.878 47.9213C12.572 49.5013 12.64 49.4133 11.359 51.1373C10.838 51.8393 10.411 52.4893 10.411 52.5833C10.411 52.6763 9.79899 53.7893 9.05199 55.0553C8.30399 56.3213 7.692 57.4603 7.692 57.5873C7.692 57.7143 7.522 57.9583 7.314 58.1313C7.106 58.3033 6.659 59.2053 6.319 60.1363C5.979 61.0663 5.538 62.0203 5.337 62.2563C5.137 62.4923 4.973 62.8803 4.973 63.1173C4.973 63.7773 4.675 64.4103 4.365 64.4103C3.444 64.4103 6.96599 55.6153 8.28699 54.6153C8.38999 54.5373 8.60899 54.1703 8.77399 53.7993C9.21499 52.8113 9.786 51.8523 10.047 51.6613C10.437 51.3753 11.499 49.7643 11.499 49.4573C11.499 49.2963 11.683 49.0953 11.907 49.0093C12.131 48.9233 12.315 48.7423 12.315 48.6063C12.315 46.7433 21.674 36.5593 26.727 32.9253C27.848 32.1183 28.807 31.3473 28.857 31.2113C28.907 31.0753 29.194 30.9633 29.496 30.9633C29.921 30.9633 29.673 31.3183 28.407 32.5273ZM36.056 62.4073C35.962 62.6523 35.997 62.9993 36.133 63.1773C36.269 63.3563 36.839 64.1653 37.401 64.9763C37.962 65.7863 39.4 67.7953 40.596 69.4413C41.793 71.0863 43.349 73.2883 44.055 74.3353C44.76 75.3823 46.387 77.7073 47.67 79.5023C48.953 81.2963 50.967 84.1723 52.146 85.8923C53.325 87.6123 54.826 89.7533 55.481 90.6513C56.983 92.7063 62.32 100.253 63.586 102.112C64.611 103.616 65.412 103.814 65.778 102.654C65.943 102.13 66.983 99.8963 69.909 93.7783C71.034 91.4283 71.115 90.3403 70.297 88.6113C69.979 87.9383 69.228 86.1643 68.629 84.6683C68.03 83.1733 66.849 80.2973 66.006 78.2783C63.235 71.6473 63.119 71.9883 68.128 72.0413C71.964 72.0823 72.535 71.9063 71.893 70.8783C71.272 69.8843 65.532 62.6633 65.083 62.3113C64.344 61.7333 36.28 61.8263 36.056 62.4073ZM103.088 62.2463C102.836 62.3933 101.633 64.0723 100.414 65.9773C99.195 67.8823 97.936 69.7813 97.616 70.1983C96.595 71.5283 97.133 71.8653 100.525 72.0243C104.333 72.2023 104.283 72.1063 102.592 75.9673C101.908 77.5293 98.515 85.9343 98.515 86.0663C98.515 86.1513 98.213 86.8213 97.844 87.5553C96.35 90.5313 96.379 91.0443 98.218 94.1863C98.656 94.9333 99.589 96.6463 100.293 97.9933C103.042 103.256 102.889 103.239 106.015 98.6373C107.568 96.3523 109.539 93.5003 113.607 87.6593C115.169 85.4163 116.815 83.0303 117.266 82.3573C117.716 81.6843 118.851 80.0413 119.788 78.7063C123.594 73.2863 124.442 72.0673 125.855 69.9843C128.094 66.6863 128.982 65.4353 129.668 64.6153C130.494 63.6283 130.721 62.8413 130.319 62.3573C129.922 61.8793 103.9 61.7723 103.088 62.2463ZM67.946 74.4033C67.575 75.5873 72.489 89.0053 73.362 89.1903C74.658 89.4643 93.786 89.4543 94.51 89.1783C95.001 88.9923 95.384 88.3663 96.048 86.6633C96.534 85.4163 97.429 83.1733 98.036 81.6773C100.412 75.8243 100.711 74.9653 100.548 74.4533C100.3 73.6713 68.191 73.6233 67.946 74.4033ZM131.724 74.2933C130.454 75.8243 131.458 77.5253 133.817 77.8383C134.824 77.9723 135.495 78.2563 136.115 78.8103L136.992 79.5923L137.076 88.1133C137.175 98.2133 137.136 98.6093 135.888 99.9323C134.77 101.117 134.708 101.884 135.658 102.772C137.149 104.165 137.11 103.711 137.123 119.717C137.138 138.437 137.208 138.101 133.294 138.101C131.238 138.101 130.874 138.382 130.874 139.967C130.874 141.71 130.143 141.636 147.314 141.636H162.9L164.63 140.425C165.581 139.758 167.357 138.532 168.575 137.699C169.793 136.866 170.934 136.012 171.11 135.8C171.523 135.302 171.518 80.2553 171.105 79.7583C170.767 79.3503 164.576 75.0373 163.42 74.4043C162.255 73.7653 132.249 73.6603 131.724 74.2933ZM186.55 74.2213C184.89 75.1883 186.322 78.0063 188.473 78.0063C189.127 78.0063 190.083 78.2063 190.597 78.4493C192.357 79.2853 192.328 79.1093 192.328 88.9573C192.328 98.4273 192.296 98.6953 190.997 99.8713C190.131 100.654 190.257 101.764 191.302 102.583L192.179 103.269L192.369 107.157C192.751 114.958 192.639 135.034 192.209 136.065C191.65 137.402 190.366 138.099 188.46 138.1C186.577 138.102 185.886 138.791 186.22 140.334C186.507 141.658 186.261 141.628 196.861 141.632C208.167 141.637 207.556 141.728 207.556 140.03C207.556 138.439 207.227 138.102 205.666 138.097C201.923 138.085 201.593 136.064 201.579 113.03L201.574 104.138L202.797 103.115C203.528 102.505 204.021 101.864 204.021 101.527C204.021 101.215 203.471 100.421 202.797 99.7603L201.574 98.5593V89.1143C201.574 77.6083 201.494 77.7973 206.384 77.7463C207.011 77.7403 207.612 77.5933 207.718 77.4203C208.008 76.9513 207.865 74.7083 207.519 74.2903C207.139 73.8333 187.329 73.7673 186.55 74.2213ZM233.933 74.1093C232.892 74.4993 225.165 79.2543 224.967 79.6263C224.844 79.8573 224.7 84.1283 224.647 89.1183L224.551 98.1913L223.435 99.1823C221.835 100.601 221.739 101.144 222.884 102.289C224.779 104.184 224.687 103.283 224.687 120.017V135.135L225.323 135.734C225.673 136.064 226.805 136.924 227.839 137.646C228.872 138.367 230.56 139.56 231.589 140.297L233.459 141.636H246.15C255.658 141.636 258.923 141.554 259.167 141.31C259.414 141.063 259.494 136.89 259.494 124.194V107.405L258.889 106.981C257.903 106.291 245.62 106.356 244.988 107.055C243.763 108.409 244.516 110.724 246.441 111.52C247.79 112.078 249.171 113.316 249.605 114.355C250.273 115.952 250.135 132.015 249.45 132.381C249.127 132.554 246.239 132.663 241.954 132.663C237.67 132.663 234.782 132.554 234.459 132.381C233.755 132.005 233.617 84.0453 234.318 83.4633C234.841 83.0293 248.784 83.1033 249.489 83.5433C249.939 83.8243 249.976 84.4513 249.976 91.7703C249.976 101.747 249.625 101.218 254.234 98.1863C255.556 97.3163 257.281 96.1923 258.066 95.6893L259.494 94.7743V87.5183V80.2623L257.794 78.9413C256.859 78.2143 256.033 77.5473 255.959 77.4593C255.884 77.3713 254.848 76.5713 253.657 75.6813L251.492 74.0633L242.916 74.0093C238.2 73.9803 234.157 74.0253 233.933 74.1093ZM274.246 74.2673C272.965 75.8823 273.696 77.6253 275.755 77.8643C277.078 78.0173 277.557 78.2313 278.625 79.1453L279.908 80.2413L279.83 89.3103L279.752 98.3783L278.596 99.5553C277.221 100.956 277.158 101.565 278.281 102.632C279.909 104.18 279.847 103.573 280.054 120.052L280.245 135.253L279.591 135.986C279.163 136.466 278.136 136.987 276.625 137.49L274.313 138.259L274.229 139.424C274.082 141.451 273.609 141.364 284.761 141.364C295.688 141.364 295.387 141.411 295.387 139.712C295.387 138.413 295.064 138.19 292.969 138.045C291.383 137.936 291.15 137.837 290.317 136.929L289.405 135.934V120.035C289.405 103.495 289.441 102.949 290.55 102.597C291.003 102.453 291.581 101.487 291.581 100.873C291.581 100.757 291.091 100.163 290.493 99.5533C289.533 98.5743 289.404 98.2893 289.394 97.1303C289.388 96.4083 289.392 92.1463 289.403 87.6593L289.424 79.5023L290.095 78.8273C290.646 78.2743 291.195 78.1023 293.145 77.8703L295.523 77.5883L295.606 76.1433C295.654 75.3123 295.553 74.5353 295.369 74.3133C294.925 73.7783 274.669 73.7343 274.246 74.2673ZM308.449 74.4533C307.95 75.3873 308.08 87.3973 308.595 87.9123C309.981 89.2983 311.966 88.2973 313.578 85.3993C314.455 83.8213 314.564 83.7293 315.753 83.5493C317.691 83.2563 324.471 83.3233 324.786 83.6383C324.963 83.8163 325.032 86.3533 324.977 90.7203L324.891 97.5253L323.464 99.0343C321.692 100.907 321.719 101.667 323.595 102.716C324.042 102.966 324.09 104.115 324.29 119.202L324.504 135.42L323.924 136.359C323.171 137.577 322.119 138.101 320.428 138.101C318.885 138.101 318.501 138.494 318.501 140.068C318.501 141.669 318.279 141.636 329.002 141.636C340.339 141.636 339.711 141.732 339.711 140.009C339.711 138.458 339.452 138.208 337.672 138.046C335.9 137.885 334.094 136.768 333.805 135.656C333.688 135.207 333.654 127.754 333.729 119.095L333.865 103.351L334.904 102.371C335.475 101.832 336.065 101.392 336.214 101.392C336.737 101.392 336.099 100.161 334.918 98.8883L333.729 97.6083L333.674 92.4983C333.57 82.8353 333.453 83.2033 336.62 83.2033C340.979 83.2033 343.783 84.1863 346.022 86.4993L347.301 87.8223L349.013 87.7413L350.724 87.6593L350.641 81.1433C350.589 77.0463 350.45 74.4973 350.268 74.2773C349.714 73.6093 308.809 73.7823 308.449 74.4533ZM161.977 83.9883C162.314 84.3363 162.402 87.9463 162.568 108.228L162.764 132.06L162.2 132.361C161.484 132.744 147.796 132.777 146.799 132.398L146.101 132.132V108.332C146.101 84.7153 146.106 84.5283 146.658 83.9763C147.394 83.2403 161.263 83.2513 161.977 83.9883ZM73.005 91.3413C72.678 91.6463 72.41 92.0013 72.41 92.1293C72.41 92.3473 71.897 93.4513 67.749 102.151C65.86 106.115 65.872 105.967 67.21 108.807C68.43 111.397 69.294 113.263 71.455 117.979C72.943 121.225 74.426 124.413 75.821 127.36C76.174 128.108 77.517 131.045 78.804 133.886C80.091 136.728 81.463 139.695 81.852 140.481C83.523 143.85 83.559 142.939 82.694 119.247L82.358 110.047L81.531 109.377C79.835 108.004 79.493 107.582 79.317 106.647C78.593 102.784 83.187 99.7153 86.489 101.856C89.156 103.585 88.996 106.741 86.123 109.123L84.833 110.192L85.024 125.824C85.129 134.422 85.276 141.555 85.351 141.677C85.5 141.918 86.55 141.356 86.55 141.035C86.55 140.926 86.863 140.129 87.245 139.265C87.628 138.401 88.045 137.449 88.173 137.15C88.3 136.85 88.648 136.055 88.946 135.382C89.244 134.709 89.699 133.669 89.958 133.071C90.217 132.472 90.647 131.494 90.913 130.895C91.18 130.297 91.653 129.233 91.965 128.531C92.277 127.829 92.532 127.187 92.532 127.105C92.532 126.978 93.222 125.402 95.394 120.562C96.343 118.449 97.244 116.397 97.604 115.532C97.822 115.008 98.177 114.255 98.393 113.858C98.61 113.461 98.787 112.95 98.787 112.722C98.787 112.494 98.942 112.146 99.132 111.948C99.322 111.75 99.952 110.407 100.531 108.963C101.741 105.948 101.734 105.776 100.27 102.608C99.718 101.416 98.353 98.4213 97.235 95.9533C96.117 93.4853 95.076 91.3133 94.922 91.1263C94.366 90.4543 73.741 90.6553 73.005 91.3413ZM64.728 112.781C64.092 113.661 62.532 115.879 61.261 117.711C59.99 119.542 58.427 121.79 57.788 122.705C57.148 123.62 56.089 125.165 55.433 126.137C54.777 127.109 53.678 128.7 52.99 129.672C52.303 130.644 50.862 132.724 49.788 134.294C47.802 137.2 46.822 138.614 45.028 141.16C44.475 141.946 43.563 143.261 43.001 144.084C41.318 146.551 38.879 150.056 36.848 152.931C35.447 154.914 35.009 155.732 35.214 155.98C35.682 156.546 63.922 156.466 64.736 155.897C65.068 155.664 65.343 155.328 65.347 155.149C65.352 154.971 65.719 154.344 66.163 153.756C66.608 153.169 66.971 152.583 66.971 152.454C66.971 152.325 67.205 151.888 67.491 151.483C68.47 150.095 73.88 141.62 76.42 137.495C77.618 135.549 77.645 135.68 74.69 129.101C73.253 125.9 71.593 122.18 71.002 120.834C70.411 119.488 69.526 117.53 69.034 116.483C68.542 115.436 67.79 113.815 67.363 112.88C66.405 110.785 66.175 110.776 64.728 112.781ZM100.256 111.638C100.061 112.244 100.223 111.859 96.902 119.616C95.396 123.133 94.164 126.096 94.164 126.199C94.164 126.303 93.729 127.341 93.197 128.506C89.615 136.35 89.568 136.561 90.974 138.42C91.464 139.067 92.587 140.637 93.472 141.908C94.356 143.179 95.464 144.77 95.934 145.443C97.113 147.131 101.092 152.859 102.404 154.757L103.485 156.32H118.348C134.411 156.32 134.354 156.325 133.241 154.948C132.911 154.539 132.152 153.506 131.553 152.652C130.955 151.797 129.547 149.856 128.425 148.339C127.302 146.821 125.925 144.906 125.363 144.084C124.801 143.261 123.726 141.731 122.974 140.685C122.221 139.638 121.335 138.396 121.005 137.925C120.675 137.454 119.677 136.056 118.788 134.817C117.899 133.579 116.797 132.037 116.34 131.392C115.884 130.748 114.47 128.783 113.199 127.026C111.927 125.269 110.68 123.525 110.427 123.149C104.296 114.042 100.768 110.049 100.256 111.638Z" fill="#F3F3F3"/>
</svg>
